<?xml version="1.0" standalone="no"?>
<!DOCTYPE svg PUBLIC "-//W3C//DTD SVG 1.1//EN" "http://www.w3.org/Graphics/SVG/1.1/DTD/svg11.dtd" >
<svg xmlns="http://www.w3.org/2000/svg" xmlns:xlink="http://www.w3.org/1999/xlink" version="1.1" viewBox="0 0 1612 2048">
  <g transform="matrix(1 0 0 -1 0 1638)">
   <path fill="currentColor"
d="M1491 733q0 -266 -101.5 -448t-295.5 -256l350 -377h-322l-276 328h-39q-331 0 -508.5 196.5t-177.5 558.5t178.5 556t509.5 194q326 0 504 -197t178 -555zM375 733q0 -270 109 -409.5t323 -139.5q213 0 321.5 138t108.5 411q0 269 -107.5 408t-320.5 139
q-215 0 -324.5 -139t-109.5 -408z" />
  </g>

</svg>
