<?xml version="1.0" standalone="no"?>
<!DOCTYPE svg PUBLIC "-//W3C//DTD SVG 1.1//EN" "http://www.w3.org/Graphics/SVG/1.1/DTD/svg11.dtd" >
<svg xmlns="http://www.w3.org/2000/svg" xmlns:xlink="http://www.w3.org/1999/xlink" version="1.1" viewBox="0 0 1188 2048">
  <g transform="matrix(1 0 0 -1 0 1638)">
   <path fill="currentColor"
d="M860 0l-47 154h-8q-80 -101 -161 -137.5t-208 -36.5q-163 0 -254.5 88t-91.5 249q0 171 127 258t387 95l191 6v59q0 106 -49.5 158.5t-153.5 52.5q-85 0 -163 -25t-150 -59l-76 168q90 47 197 71.5t202 24.5q211 0 318.5 -92t107.5 -289v-745h-168zM510 160
q128 0 205.5 71.5t77.5 200.5v96l-142 -6q-166 -6 -241.5 -55.5t-75.5 -151.5q0 -74 44 -114.5t132 -40.5z" />
  </g>

</svg>
