<?xml version="1.0" standalone="no"?>
<!DOCTYPE svg PUBLIC "-//W3C//DTD SVG 1.1//EN" "http://www.w3.org/Graphics/SVG/1.1/DTD/svg11.dtd" >
<svg xmlns="http://www.w3.org/2000/svg" xmlns:xlink="http://www.w3.org/1999/xlink" version="1.1" viewBox="0 0 1276 2048">
  <g transform="matrix(1 0 0 -1 0 1638)">
   <path fill="currentColor"
d="M733 1126q207 0 322.5 -150t115.5 -421q0 -272 -117 -423.5t-325 -151.5q-210 0 -326 151h-16l-43 -131h-176v1556h235v-370q0 -41 -4 -122t-6 -103h10q112 165 330 165zM672 934q-142 0 -204.5 -83.5t-64.5 -279.5v-16q0 -202 64 -292.5t209 -90.5q125 0 189.5 99
t64.5 286q0 377 -258 377z" />
  </g>

</svg>
