<?xml version="1.0" standalone="no"?>
<!DOCTYPE svg PUBLIC "-//W3C//DTD SVG 1.1//EN" "http://www.w3.org/Graphics/SVG/1.1/DTD/svg11.dtd" >
<svg xmlns="http://www.w3.org/2000/svg" xmlns:xlink="http://www.w3.org/1999/xlink" version="1.1" viewBox="0 0 1180 2048">
  <g transform="matrix(1 0 0 -1 0 1638)">
   <path fill="currentColor"
d="M651 -20q-258 0 -403.5 150.5t-145.5 414.5q0 271 135 426t371 155q219 0 346 -133t127 -366v-127h-737q5 -161 87 -247.5t231 -86.5q98 0 182.5 18.5t181.5 61.5v-191q-86 -41 -174 -58t-201 -17zM608 948q-112 0 -179.5 -71t-80.5 -207h502q-2 137 -66 207.5t-176 70.5
z" />
  </g>

</svg>
