<?xml version="1.0" standalone="no"?>
<!DOCTYPE svg PUBLIC "-//W3C//DTD SVG 1.1//EN" "http://www.w3.org/Graphics/SVG/1.1/DTD/svg11.dtd" >
<svg xmlns="http://www.w3.org/2000/svg" xmlns:xlink="http://www.w3.org/1999/xlink" version="1.1" viewBox="0 0 1169 2048">
  <g transform="matrix(1 0 0 -1 0 1638)">
   <path fill="currentColor"
d="M584 1481q208 0 329 -95.5t121 -255.5q0 -225 -270 -358q172 -86 244.5 -181t72.5 -212q0 -181 -133 -290t-360 -109q-238 0 -369 102t-131 289q0 122 68.5 219.5t224.5 173.5q-134 80 -191 169t-57 200q0 159 125 253.5t326 94.5zM313 379q0 -104 73 -161.5t198 -57.5
q129 0 200.5 59.5t71.5 161.5q0 81 -66 148t-200 124l-29 13q-132 -58 -190 -127.5t-58 -159.5zM582 1300q-100 0 -161 -49.5t-61 -134.5q0 -52 22 -93t64 -74.5t142 -80.5q120 53 169.5 111.5t49.5 136.5q0 85 -61.5 134.5t-163.5 49.5z" />
  </g>

</svg>
