<?xml version="1.0" standalone="no"?>
<!DOCTYPE svg PUBLIC "-//W3C//DTD SVG 1.1//EN" "http://www.w3.org/Graphics/SVG/1.1/DTD/svg11.dtd" >
<svg xmlns="http://www.w3.org/2000/svg" xmlns:xlink="http://www.w3.org/1999/xlink" version="1.1" viewBox="0 0 1169 2048">
  <g transform="matrix(1 0 0 -1 0 1638)">
   <path fill="currentColor"
d="M586 913q221 0 350 -117t129 -319q0 -234 -146.5 -365.5t-416.5 -131.5q-245 0 -385 79v213q81 -46 186 -71t195 -25q159 0 242 71t83 208q0 262 -334 262q-47 0 -116 -9.5t-121 -21.5l-105 62l56 714h760v-209h-553l-33 -362q35 6 85.5 14t123.5 8z" />
  </g>

</svg>
