<?xml version="1.0" standalone="no"?>
<!DOCTYPE svg PUBLIC "-//W3C//DTD SVG 1.1//EN" "http://www.w3.org/Graphics/SVG/1.1/DTD/svg11.dtd" >
<svg xmlns="http://www.w3.org/2000/svg" xmlns:xlink="http://www.w3.org/1999/xlink" version="1.1" viewBox="0 0 1139 2048">
  <g transform="matrix(1 0 0 -1 0 1638)">
   <path fill="currentColor"
d="M1102 1106v-129l-189 -35q26 -35 43 -86t17 -108q0 -171 -118 -269t-325 -98q-53 0 -96 8q-76 -47 -76 -110q0 -38 35.5 -57t130.5 -19h193q183 0 278 -78t95 -225q0 -188 -155 -290t-448 -102q-226 0 -345 80t-119 228q0 102 64.5 171.5t180.5 96.5q-47 20 -77.5 64.5
t-30.5 93.5q0 62 35 105t104 85q-86 37 -139.5 120.5t-53.5 195.5q0 180 113.5 279t323.5 99q47 0 98.5 -6.5t77.5 -13.5h383zM233 -172q0 -76 68.5 -117t192.5 -41q192 0 286 55t94 146q0 72 -51.5 102.5t-191.5 30.5h-178q-101 0 -160.5 -47.5t-59.5 -128.5zM334 748
q0 -104 53.5 -160t153.5 -56q204 0 204 218q0 108 -50.5 166.5t-153.5 58.5q-102 0 -154.5 -58t-52.5 -169z" />
  </g>

</svg>
