<?xml version="1.0" standalone="no"?>
<!DOCTYPE svg PUBLIC "-//W3C//DTD SVG 1.1//EN" "http://www.w3.org/Graphics/SVG/1.1/DTD/svg11.dtd" >
<svg xmlns="http://www.w3.org/2000/svg" xmlns:xlink="http://www.w3.org/1999/xlink" version="1.1" viewBox="0 0 1169 2048">
  <g transform="matrix(1 0 0 -1 0 1638)">
   <path fill="currentColor"
d="M1079 838q0 -432 -174 -645t-524 -213q-133 0 -191 16v197q89 -25 179 -25q238 0 355 128t128 402h-12q-59 -90 -142.5 -130t-195.5 -40q-194 0 -305 121t-111 332q0 229 128.5 364.5t350.5 135.5q156 0 272 -76t179 -220.5t63 -346.5zM569 1286q-122 0 -187 -79.5
t-65 -223.5q0 -125 60.5 -196.5t183.5 -71.5q119 0 200 71t81 166q0 89 -34.5 166.5t-96.5 122.5t-142 45z" />
  </g>

</svg>
