<?xml version="1.0" standalone="no"?>
<!DOCTYPE svg PUBLIC "-//W3C//DTD SVG 1.1//EN" "http://www.w3.org/Graphics/SVG/1.1/DTD/svg11.dtd" >
<svg xmlns="http://www.w3.org/2000/svg" xmlns:xlink="http://www.w3.org/1999/xlink" version="1.1" viewBox="0 0 1276 2048">
  <g transform="matrix(1 0 0 -1 0 1638)">
   <path fill="currentColor"
d="M729 -20q-210 0 -326 151h-14q14 -140 14 -170v-453h-235v1598h190q8 -31 33 -148h12q110 168 330 168q207 0 322.5 -150t115.5 -421t-117.5 -423t-324.5 -152zM672 934q-140 0 -204.5 -82t-64.5 -262v-35q0 -202 64 -292.5t209 -90.5q122 0 188 100t66 285
q0 186 -65.5 281.5t-192.5 95.5z" />
  </g>

</svg>
