<?xml version="1.0" standalone="no"?>
<!DOCTYPE svg PUBLIC "-//W3C//DTD SVG 1.1//EN" "http://www.w3.org/Graphics/SVG/1.1/DTD/svg11.dtd" >
<svg xmlns="http://www.w3.org/2000/svg" xmlns:xlink="http://www.w3.org/1999/xlink" version="1.1" viewBox="0 0 1673 2048">
  <g transform="matrix(1 0 0 -1 0 1638)">
   <path fill="currentColor"
d="M1075 0l-143 516q-26 82 -94 381h-9q-58 -270 -92 -383l-147 -514h-260l-310 1106h240l141 -545q48 -202 68 -346h6q10 73 30.5 167.5t35.5 141.5l168 582h258l163 -582q15 -49 37.5 -150t26.5 -157h8q15 123 70 344l143 545h236l-312 -1106h-264z" />
  </g>

</svg>
