<?xml version="1.0" standalone="no"?>
<!DOCTYPE svg PUBLIC "-//W3C//DTD SVG 1.1//EN" "http://www.w3.org/Graphics/SVG/1.1/DTD/svg11.dtd" >
<svg xmlns="http://www.w3.org/2000/svg" xmlns:xlink="http://www.w3.org/1999/xlink" version="1.1" viewBox="0 0 788 1024">
  <g transform="matrix(1 0 0 -1 0 817)">
   <path fill="currentColor"
d="M36 410q0 187 102.5 307t274.5 120q67 0 124 -22.5t93.5 -58.5t58.5 -67t34 -61l-143 -45q-16 24 -27 38t-32 34t-47.5 29.5t-59.5 9.5q-97 0 -152 -77t-55 -207t57 -208t144 -78q73 0 116.5 38t52.5 102q4 26 4 61h-182v142h343v-467h-113l-15 62q-67 -80 -212 -80
q-155 0 -260.5 116.5t-105.5 311.5z" />
  </g>

</svg>
