<?xml version="1.0" standalone="no"?>
<!DOCTYPE svg PUBLIC "-//W3C//DTD SVG 1.1//EN" "http://www.w3.org/Graphics/SVG/1.1/DTD/svg11.dtd" >
<svg xmlns="http://www.w3.org/2000/svg" xmlns:xlink="http://www.w3.org/1999/xlink" version="1.1" viewBox="0 0 651 1024">
  <g transform="matrix(1 0 0 -1 0 817)">
   <path fill="currentColor"
d="M31 302q0 149 72.5 233.5t186.5 84.5q84 0 135 -62v286h159v-844h-155v60q-18 -31 -57 -54.5t-83 -23.5q-48 0 -92.5 18t-82.5 54t-60.5 100t-22.5 148zM195 302q0 -89 31.5 -136.5t85.5 -47.5q53 0 83.5 49t30.5 135q0 82 -29 132t-85 50q-58 0 -87.5 -49.5
t-29.5 -132.5z" />
  </g>

</svg>
