<?xml version="1.0" standalone="no"?>
<!DOCTYPE svg PUBLIC "-//W3C//DTD SVG 1.1//EN" "http://www.w3.org/Graphics/SVG/1.1/DTD/svg11.dtd" >
<svg xmlns="http://www.w3.org/2000/svg" xmlns:xlink="http://www.w3.org/1999/xlink" version="1.1" viewBox="0 0 620 1024">
  <g transform="matrix(1 0 0 -1 0 817)">
   <path fill="currentColor"
d="M202 557q0 -66 26.5 -104.5t74.5 -38.5q47 0 74 39t27 105q0 62 -26.5 102t-74.5 40t-74.5 -40.5t-26.5 -102.5zM29 163l134 43q46 -88 113 -88q36 0 63 20.5t41.5 54.5t21.5 68.5t9 71.5q-51 -55 -131 -55q-105 0 -175.5 76t-70.5 202q0 124 74 202.5t194 78.5
q100 0 167 -63.5t91 -169.5q16 -70 16 -158q0 -226 -76 -345t-225 -119q-90 0 -156 55.5t-90 125.5z" />
  </g>

</svg>
