<?xml version="1.0" standalone="no"?>
<!DOCTYPE svg PUBLIC "-//W3C//DTD SVG 1.1//EN" "http://www.w3.org/Graphics/SVG/1.1/DTD/svg11.dtd" >
<svg xmlns="http://www.w3.org/2000/svg" xmlns:xlink="http://www.w3.org/1999/xlink" version="1.1" viewBox="0 0 620 1024">
  <g transform="matrix(1 0 0 -1 0 817)">
   <path fill="currentColor"
d="M210 265q0 -71 29.5 -109t75.5 -38t74.5 37.5t28.5 109.5q0 73 -28 109.5t-75 36.5q-48 0 -76.5 -38t-28.5 -108zM39 376q0 130 30 231t99.5 165.5t170.5 64.5q176 0 247 -183l-130 -44q-45 90 -116 90q-79 0 -114 -117q-14 -46 -18 -91q48 55 130 55q111 0 180.5 -79
t69.5 -202q0 -125 -71 -204.5t-198 -79.5q-60 0 -112.5 23t-84.5 65q-83 103 -83 306z" />
  </g>

</svg>
