<?xml version="1.0" standalone="no"?>
<!DOCTYPE svg PUBLIC "-//W3C//DTD SVG 1.1//EN" "http://www.w3.org/Graphics/SVG/1.1/DTD/svg11.dtd" >
<svg xmlns="http://www.w3.org/2000/svg" xmlns:xlink="http://www.w3.org/1999/xlink" version="1.1" viewBox="0 0 1276 2048">
  <g transform="matrix(1 0 0 -1 0 1638)">
   <path fill="currentColor"
d="M874 0l-75 150h-8q-79 -98 -161 -134t-212 -36q-160 0 -252 96t-92 270q0 181 126 269.5t365 99.5l189 6v16q0 140 -138 140q-124 0 -315 -84l-113 258q198 102 500 102q218 0 337.5 -108t119.5 -302v-743h-271zM584 256q71 0 121.5 45t50.5 117v88l-90 -4
q-193 -7 -193 -142q0 -104 111 -104z" />
  </g>

</svg>
