<?xml version="1.0" standalone="no"?>
<!DOCTYPE svg PUBLIC "-//W3C//DTD SVG 1.1//EN" "http://www.w3.org/Graphics/SVG/1.1/DTD/svg11.dtd" >
<svg xmlns="http://www.w3.org/2000/svg" xmlns:xlink="http://www.w3.org/1999/xlink" version="1.1" viewBox="0 0 1241 2048">
  <g transform="matrix(1 0 0 -1 0 1638)">
   <path fill="currentColor"
d="M1204 1133v-189l-155 -57q32 -58 32 -135q0 -183 -128.5 -284t-383.5 -101q-63 0 -100 8q-14 -26 -14 -49q0 -29 47 -44.5t123 -15.5h188q381 0 381 -321q0 -207 -176.5 -322t-495.5 -115q-241 0 -371.5 80.5t-130.5 231.5q0 203 252 262q-52 22 -90.5 71t-38.5 97
q0 53 29 93.5t121 96.5q-88 39 -138.5 122t-50.5 202q0 185 126 287t360 102q31 0 107 -7t112 -13h395zM350 -141q0 -48 52 -77.5t139 -29.5q142 0 227.5 35.5t85.5 91.5q0 45 -52 63.5t-149 18.5h-153q-63 0 -106.5 -29.5t-43.5 -72.5zM473 762q0 -174 121 -174
q56 0 86.5 43t30.5 129q0 176 -117 176q-121 0 -121 -174z" />
  </g>

</svg>
