<?xml version="1.0" standalone="no"?>
<!DOCTYPE svg PUBLIC "-//W3C//DTD SVG 1.1//EN" "http://www.w3.org/Graphics/SVG/1.1/DTD/svg11.dtd" >
<svg xmlns="http://www.w3.org/2000/svg" xmlns:xlink="http://www.w3.org/1999/xlink" version="1.1" viewBox="0 0 1305 2048">
  <g transform="matrix(1 0 0 -1 0 1638)">
   <path fill="currentColor"
d="M1217 569q0 -278 -149.5 -433.5t-418.5 -155.5q-258 0 -410.5 159t-152.5 430q0 277 149.5 430.5t419.5 153.5q167 0 295 -71t197.5 -203.5t69.5 -309.5zM483 569q0 -146 39 -222.5t131 -76.5q91 0 128.5 76.5t37.5 222.5q0 145 -38 219t-130 74q-90 0 -129 -73.5
t-39 -219.5z" />
  </g>

</svg>
