<?xml version="1.0" standalone="no"?>
<!DOCTYPE svg PUBLIC "-//W3C//DTD SVG 1.1//EN" "http://www.w3.org/Graphics/SVG/1.1/DTD/svg11.dtd" >
<svg xmlns="http://www.w3.org/2000/svg" xmlns:xlink="http://www.w3.org/1999/xlink" version="1.1" viewBox="0 0 679 1024">
  <g transform="matrix(1 0 0 -1 0 817)">
   <path fill="currentColor"
d="M49 381q0 185 91.5 292.5t238.5 107.5q92 0 157 -50.5t97 -122.5l-83 -28q-67 118 -173 118q-105 0 -166.5 -86.5t-61.5 -230.5q0 -146 62.5 -230.5t165.5 -84.5q66 0 115.5 37.5t73.5 92.5l87 -28q-15 -34 -37.5 -64t-55.5 -59t-79.5 -46t-101.5 -17q-145 0 -237.5 106
t-92.5 293z" />
  </g>

</svg>
