<?xml version="1.0" standalone="no"?>
<!DOCTYPE svg PUBLIC "-//W3C//DTD SVG 1.1//EN" "http://www.w3.org/Graphics/SVG/1.1/DTD/svg11.dtd" >
<svg xmlns="http://www.w3.org/2000/svg" xmlns:xlink="http://www.w3.org/1999/xlink" version="1.1" viewBox="0 0 571 1024">
  <g transform="matrix(1 0 0 -1 0 817)">
   <path fill="currentColor"
d="M134 146q0 -36 30 -61t81 -25q68 0 115.5 44t47.5 113v68q-40 -10 -130 -24q-144 -24 -144 -115zM40 138q0 155 235 191q102 16 133 26v31q0 48 -33.5 78t-94.5 30q-48 0 -92.5 -22.5t-74.5 -59.5l-59 50q41 49 100 78t124 29q223 0 223 -220v-349h-90v83
q-17 -41 -65 -71t-113 -30q-91 0 -142 43.5t-51 112.5z" />
  </g>

</svg>
