<?xml version="1.0" standalone="no"?>
<!DOCTYPE svg PUBLIC "-//W3C//DTD SVG 1.1//EN" "http://www.w3.org/Graphics/SVG/1.1/DTD/svg11.dtd" >
<svg xmlns="http://www.w3.org/2000/svg" xmlns:xlink="http://www.w3.org/1999/xlink" version="1.1" viewBox="0 0 607 1024">
  <g transform="matrix(1 0 0 -1 0 817)">
   <path fill="currentColor"
d="M82 0v790h93v-325q17 39 59.5 71.5t99.5 32.5q102 0 167 -78.5t65 -214.5q0 -76 -21 -135t-56 -92.5t-74 -50t-81 -16.5q-55 0 -98 31.5t-62 75.5v-89h-92zM173 276q0 -99 42.5 -157t105.5 -58q65 0 107 56.5t42 158.5q0 98 -41 156t-108 58q-63 0 -105.5 -58.5
t-42.5 -155.5z" />
  </g>

</svg>
