<?xml version="1.0" standalone="no"?>
<!DOCTYPE svg PUBLIC "-//W3C//DTD SVG 1.1//EN" "http://www.w3.org/Graphics/SVG/1.1/DTD/svg11.dtd" >
<svg xmlns="http://www.w3.org/2000/svg" xmlns:xlink="http://www.w3.org/1999/xlink" version="1.1" viewBox="0 0 579 1024">
  <g transform="matrix(1 0 0 -1 0 817)">
   <path fill="currentColor"
d="M138 525q0 -79 42 -128t100 -49q61 0 101.5 49.5t40.5 126.5q0 75 -39.5 126.5t-102.5 51.5q-61 0 -101.5 -49.5t-40.5 -127.5zM44 129l80 27q20 -41 55 -67.5t79 -26.5q46 0 80 25t52.5 69t27.5 95.5t10 111.5q-19 -38 -60.5 -66t-100.5 -28q-93 0 -160 69t-67 186
q0 113 68.5 185t171.5 72q88 0 148.5 -56.5t80.5 -146.5q14 -62 14 -159q0 -205 -64.5 -321t-201.5 -116q-76 0 -132.5 44.5t-80.5 102.5z" />
  </g>

</svg>
