<?xml version="1.0" standalone="no"?>
<!DOCTYPE svg PUBLIC "-//W3C//DTD SVG 1.1//EN" "http://www.w3.org/Graphics/SVG/1.1/DTD/svg11.dtd" >
<svg xmlns="http://www.w3.org/2000/svg" xmlns:xlink="http://www.w3.org/1999/xlink" version="1.1" viewBox="0 0 512 1024">
  <g transform="matrix(1 0 0 -1 0 817)">
   <path fill="currentColor"
d="M33 111l69 40q59 -91 158 -91q56 0 90 21t34 59q0 14 -4.5 26t-18 22.5t-23 17t-35 15.5t-38 13t-46.5 15q-36 11 -60.5 22.5t-52 30t-41.5 46.5t-14 64q0 70 57.5 113.5t151.5 43.5q68 0 126 -35.5t84 -86.5l-63 -40q-23 35 -61 59.5t-85 24.5q-56 0 -85.5 -21.5
t-29.5 -58.5q0 -22 11.5 -39.5t37.5 -31t44.5 -20.5t54.5 -18q37 -11 64.5 -23t57.5 -31t46.5 -47t16.5 -62q0 -66 -58 -111.5t-160 -45.5q-76 0 -135 34t-93 95z" />
  </g>

</svg>
