<?xml version="1.0" standalone="no"?>
<!DOCTYPE svg PUBLIC "-//W3C//DTD SVG 1.1//EN" "http://www.w3.org/Graphics/SVG/1.1/DTD/svg11.dtd" >
<svg xmlns="http://www.w3.org/2000/svg" xmlns:xlink="http://www.w3.org/1999/xlink" version="1.1" viewBox="0 0 579 1024">
  <g transform="matrix(1 0 0 -1 0 817)">
   <path fill="currentColor"
d="M50 585q22 91 81.5 143.5t155.5 52.5q99 0 162.5 -57t63.5 -157q0 -114 -118 -227q-10 -10 -39.5 -38t-38.5 -37t-32 -31.5t-31.5 -32.5t-24.5 -29t-24 -31.5t-17 -28.5t-16 -32h340v-80h-457q0 42 16.5 86t36 76t63 79.5t68 70.5t79.5 75q95 91 95 182q0 63 -35 98
t-93 35q-59 0 -97 -37.5t-54 -102.5z" />
  </g>

</svg>
