<?xml version="1.0" standalone="no"?>
<!DOCTYPE svg PUBLIC "-//W3C//DTD SVG 1.1//EN" "http://www.w3.org/Graphics/SVG/1.1/DTD/svg11.dtd" >
<svg xmlns="http://www.w3.org/2000/svg" xmlns:xlink="http://www.w3.org/1999/xlink" version="1.1" viewBox="0 0 579 1024">
  <g transform="matrix(1 0 0 -1 0 817)">
   <path fill="currentColor"
d="M147 381q0 -94 13.5 -163t46.5 -112.5t84 -43.5q39 0 67.5 26t44 72.5t22.5 100.5t7 120q0 145 -35 233t-108 88t-107.5 -87t-34.5 -234zM47 381q0 109 21 190t56.5 125t76.5 64.5t88 20.5q115 0 179 -104t64 -296q0 -180 -60.5 -289.5t-180.5 -109.5q-47 0 -88.5 21
t-77.5 66t-57 125t-21 187z" />
  </g>

</svg>
