<?xml version="1.0" standalone="no"?>
<!DOCTYPE svg PUBLIC "-//W3C//DTD SVG 1.1//EN" "http://www.w3.org/Graphics/SVG/1.1/DTD/svg11.dtd" >
<svg xmlns="http://www.w3.org/2000/svg" xmlns:xlink="http://www.w3.org/1999/xlink" version="1.1" viewBox="0 0 674 1024">
  <g transform="matrix(1 0 0 -1 0 817)">
   <path fill="currentColor"
d="M62 353q0 169 74 271t202 102q127 0 201 -102.5t74 -270.5t-74 -269.5t-201 -101.5q-128 0 -202 101.5t-74 269.5zM93 353q0 -156 65.5 -250.5t179.5 -94.5q113 0 179 94t66 251q0 159 -67 252.5t-178 93.5q-112 0 -178.5 -93.5t-66.5 -252.5zM339 213l22 20l251 -265
l-22 -18z" />
  </g>

</svg>
