<?xml version="1.0" standalone="no"?>
<!DOCTYPE svg PUBLIC "-//W3C//DTD SVG 1.1//EN" "http://www.w3.org/Graphics/SVG/1.1/DTD/svg11.dtd" >
<svg xmlns="http://www.w3.org/2000/svg" xmlns:xlink="http://www.w3.org/1999/xlink" version="1.1" viewBox="0 0 565 1024">
  <g transform="matrix(1 0 0 -1 0 817)">
   <path fill="currentColor"
d="M100 0v738h30v-369q12 56 59 102.5t116 46.5q93 0 148.5 -71.5t55.5 -195.5q0 -134 -60 -201.5t-145 -67.5q-63 0 -108.5 40t-65.5 98v-120h-30zM128 251q0 -115 51 -180t123 -65q80 0 130 66.5t50 178.5q0 111 -50 176.5t-129 65.5q-71 0 -123 -64.5t-52 -177.5z" />
  </g>

</svg>
