<?xml version="1.0" standalone="no"?>
<!DOCTYPE svg PUBLIC "-//W3C//DTD SVG 1.1//EN" "http://www.w3.org/Graphics/SVG/1.1/DTD/svg11.dtd" >
<svg xmlns="http://www.w3.org/2000/svg" xmlns:xlink="http://www.w3.org/1999/xlink" version="1.1" viewBox="0 0 565 1024">
  <g transform="matrix(1 0 0 -1 0 817)">
   <path fill="currentColor"
d="M129 252q0 -110 48.5 -178t125.5 -68t128 66t51 179q0 106 -47 174t-132 68q-74 0 -124 -68t-50 -173zM100 -235v735h30v-127q21 67 67.5 106t107.5 39q93 0 148.5 -72.5t55.5 -194.5q0 -128 -58 -198.5t-147 -70.5q-64 0 -108.5 39.5t-65.5 102.5v-359h-30z" />
  </g>

</svg>
