<?xml version="1.0" standalone="no"?>
<!DOCTYPE svg PUBLIC "-//W3C//DTD SVG 1.1//EN" "http://www.w3.org/Graphics/SVG/1.1/DTD/svg11.dtd" >
<svg xmlns="http://www.w3.org/2000/svg" xmlns:xlink="http://www.w3.org/1999/xlink" version="1.1" viewBox="0 0 542 1024">
  <g transform="matrix(1 0 0 -1 0 817)">
   <path fill="currentColor"
d="M99 214q0 -87 49.5 -147t131.5 -60q78 0 129.5 59.5t51.5 147.5q0 90 -52 150t-131 60q-78 0 -128.5 -61t-50.5 -149zM61 309q0 75 12 144t38.5 132.5t77 102t118.5 38.5q109 0 171 -107l-25 -12q-56 93 -146 93q-55 0 -96.5 -30t-64 -80.5t-34 -98.5t-16.5 -102
q-3 -31 -5 -94q17 69 67 111.5t125 42.5q92 0 150 -67.5t58 -166.5q0 -97 -57 -165t-151 -68q-88 0 -143 53q-43 41 -61 107t-18 167z" />
  </g>

</svg>
