<?xml version="1.0" standalone="no"?>
<!DOCTYPE svg PUBLIC "-//W3C//DTD SVG 1.1//EN" "http://www.w3.org/Graphics/SVG/1.1/DTD/svg11.dtd" >
<svg xmlns="http://www.w3.org/2000/svg" xmlns:xlink="http://www.w3.org/1999/xlink" version="1.1" viewBox="0 0 542 1024">
  <g transform="matrix(1 0 0 -1 0 817)">
   <path fill="currentColor"
d="M61 564q49 162 210 162q85 0 140 -49.5t55 -139.5q0 -106 -111 -210q-138 -127 -191 -188t-66 -114h368v-25h-404q0 23 7.5 47t30 55t38 51t57 61t60 58t72.5 68q108 103 108 198q0 79 -45 120.5t-122 41.5q-70 0 -116 -39t-63 -104z" />
  </g>

</svg>
