<?xml version="1.0" standalone="no"?>
<!DOCTYPE svg PUBLIC "-//W3C//DTD SVG 1.1//EN" "http://www.w3.org/Graphics/SVG/1.1/DTD/svg11.dtd" >
<svg xmlns="http://www.w3.org/2000/svg" xmlns:xlink="http://www.w3.org/1999/xlink" version="1.1" viewBox="0 0 542 1024">
  <g transform="matrix(1 0 0 -1 0 817)">
   <path fill="currentColor"
d="M93 354q0 -163 46 -255t134 -92q48 0 83.5 28t55.5 77.5t29.5 109.5t9.5 132q0 165 -46 255.5t-134 90.5q-85 0 -131.5 -88.5t-46.5 -257.5zM62 354q0 186 57 279t152 93q96 0 153.5 -93.5t57.5 -278.5q0 -76 -11.5 -140.5t-35 -118t-65 -83.5t-97.5 -30
q-100 0 -155.5 98t-55.5 274z" />
  </g>

</svg>
