<?xml version="1.0" standalone="no"?>
<!DOCTYPE svg PUBLIC "-//W3C//DTD SVG 1.1//EN" "http://www.w3.org/Graphics/SVG/1.1/DTD/svg11.dtd" >
<svg xmlns="http://www.w3.org/2000/svg" xmlns:xlink="http://www.w3.org/1999/xlink" version="1.1" viewBox="0 0 655 1024">
  <g transform="matrix(1 0 0 -1 0 817)">
   <path fill="currentColor"
d="M163 366h222q81 0 126 43.5t45 115.5q0 68 -45.5 112t-134.5 44h-213v-315zM117 0v721h272q103 0 158.5 -55.5t55.5 -138.5q0 -82 -43.5 -128t-94.5 -57q43 -19 66.5 -54t36.5 -91q2 -9 7.5 -32t7.5 -29.5t6.5 -24t7 -24t7 -20.5t8.5 -22.5t10 -20.5t13 -24h-53
q-15 28 -26.5 61t-17 54t-19.5 79q-7 26 -15.5 46.5t-24 41.5t-41 32.5t-59.5 11.5h-216v-326h-46z" />
  </g>

</svg>
