<?xml version="1.0" standalone="no"?>
<!DOCTYPE svg PUBLIC "-//W3C//DTD SVG 1.1//EN" "http://www.w3.org/Graphics/SVG/1.1/DTD/svg11.dtd" >
<svg xmlns="http://www.w3.org/2000/svg" xmlns:xlink="http://www.w3.org/1999/xlink" version="1.1" viewBox="0 0 602 1024">
  <g transform="matrix(1 0 0 -1 0 817)">
   <path fill="currentColor"
d="M52 120l44 17q32 -52 87 -83.5t125 -31.5q86 0 140.5 42.5t54.5 117.5q0 36 -15 63.5t-48.5 48t-60 31t-75.5 27.5q-45 15 -69 23.5t-60.5 27.5t-55.5 38t-33.5 49.5t-14.5 67.5q0 84 62.5 133t170.5 49q77 0 136 -35.5t87 -86.5l-40 -16q-63 97 -186 97
q-86 0 -134.5 -38.5t-48.5 -102.5q0 -29 13 -53.5t30 -40.5t49.5 -31.5t55 -24t63.5 -21.5q42 -14 67 -23.5t58 -27.5t51.5 -37.5t32 -49t13.5 -65.5q0 -95 -65 -148.5t-180 -53.5q-171 0 -254 138z" />
  </g>

</svg>
