<?xml version="1.0" standalone="no"?>
<!DOCTYPE svg PUBLIC "-//W3C//DTD SVG 1.1//EN" "http://www.w3.org/Graphics/SVG/1.1/DTD/svg11.dtd" >
<svg xmlns="http://www.w3.org/2000/svg" xmlns:xlink="http://www.w3.org/1999/xlink" version="1.1" viewBox="0 0 549 1024">
  <g transform="matrix(1 0 0 -1 0 817)">
   <path fill="currentColor"
d="M94 122q0 -42 35.5 -72t99.5 -30q78 0 135 50.5t57 129.5v92q-49 -17 -158 -34q-169 -27 -169 -136zM48 120q0 69 50.5 112.5t163.5 60.5t159 36v27q0 60 -40.5 98.5t-113.5 38.5q-48 0 -92 -22.5t-74 -61.5l-31 23q32 43 84 70.5t112 27.5q102 0 151 -51t49 -135v-344
h-44v102q-18 -48 -72 -84t-125 -36q-82 0 -129.5 39t-47.5 99z" />
  </g>

</svg>
