<?xml version="1.0" standalone="no"?>
<!DOCTYPE svg PUBLIC "-//W3C//DTD SVG 1.1//EN" "http://www.w3.org/Graphics/SVG/1.1/DTD/svg11.dtd" >
<svg xmlns="http://www.w3.org/2000/svg" xmlns:xlink="http://www.w3.org/1999/xlink" version="1.1" viewBox="0 0 576 1024">
  <g transform="matrix(1 0 0 -1 0 817)">
   <path fill="currentColor"
d="M52 257q0 127 59.5 200t153.5 73q63 0 108.5 -39.5t62.5 -95.5v356h45v-751h-44v113q-20 -56 -65 -93.5t-108 -37.5q-85 0 -148.5 69t-63.5 206zM98 257q0 -107 46.5 -172t124.5 -65q70 0 119 63.5t49 173.5q0 109 -50 172t-119 63q-76 0 -123 -63.5t-47 -171.5z" />
  </g>

</svg>
