<?xml version="1.0" standalone="no"?>
<!DOCTYPE svg PUBLIC "-//W3C//DTD SVG 1.1//EN" "http://www.w3.org/Graphics/SVG/1.1/DTD/svg11.dtd" >
<svg xmlns="http://www.w3.org/2000/svg" xmlns:xlink="http://www.w3.org/1999/xlink" version="1.1" viewBox="0 0 479 1024">
  <g transform="matrix(1 0 0 -1 0 817)">
   <path fill="currentColor"
d="M44 90l35 20q57 -90 163 -90q66 0 107 27.5t41 73.5q0 18 -5 32t-20 26t-25 19t-36.5 17t-38 14t-45.5 14q-35 11 -59 21t-50.5 27.5t-40 43t-13.5 58.5q0 63 51.5 100t133.5 37q60 0 108.5 -30t71.5 -73l-32 -20q-22 37 -61 61t-87 24q-64 0 -101.5 -27.5t-37.5 -72.5
q0 -48 38.5 -75t105.5 -45q39 -11 66 -21t58 -27.5t47.5 -43.5t16.5 -59q0 -59 -50.5 -99t-142.5 -40q-134 0 -198 108z" />
  </g>

</svg>
