<?xml version="1.0" standalone="no"?>
<!DOCTYPE svg PUBLIC "-//W3C//DTD SVG 1.1//EN" "http://www.w3.org/Graphics/SVG/1.1/DTD/svg11.dtd" >
<svg xmlns="http://www.w3.org/2000/svg" xmlns:xlink="http://www.w3.org/1999/xlink" version="1.1" viewBox="0 0 551 1024">
  <g transform="matrix(1 0 0 -1 0 817)">
   <path fill="currentColor"
d="M45 109l40 18q61 -106 176 -106q79 0 131.5 44.5t52.5 131.5q0 82 -56.5 124t-136.5 42q-42 0 -52 -1v40q9 -1 48 -1q74 0 120.5 42t46.5 113q0 64 -42.5 104.5t-111.5 40.5q-103 0 -156 -113l-40 14q58 138 198 138q92 0 146 -52t54 -129q0 -67 -37.5 -112.5
t-89.5 -61.5q62 -13 109.5 -60.5t47.5 -127.5q0 -104 -64.5 -159.5t-167.5 -55.5q-146 0 -216 127z" />
  </g>

</svg>
