<?xml version="1.0" standalone="no"?>
<!DOCTYPE svg PUBLIC "-//W3C//DTD SVG 1.1//EN" "http://www.w3.org/Graphics/SVG/1.1/DTD/svg11.dtd" >
<svg xmlns="http://www.w3.org/2000/svg" xmlns:xlink="http://www.w3.org/1999/xlink" version="1.1" viewBox="0 0 724 1024">
  <g transform="matrix(1 0 0 -1 0 817)">
   <path fill="currentColor"
d="M84 0v805h308q133 0 197.5 -57t64.5 -157q0 -57 -26 -99t-68 -65q48 -19 85 -68t37 -122q0 -103 -66 -170t-184 -67h-348zM233 127h175q49 0 84.5 28.5t35.5 81.5q0 50 -32 82t-91 32h-172v-224zM233 477h147q54 0 87 25t33 77q0 98 -117 98h-150v-200z" />
  </g>

</svg>
