<?xml version="1.0" standalone="no"?>
<!DOCTYPE svg PUBLIC "-//W3C//DTD SVG 1.1//EN" "http://www.w3.org/Graphics/SVG/1.1/DTD/svg11.dtd" >
<svg xmlns="http://www.w3.org/2000/svg" xmlns:xlink="http://www.w3.org/1999/xlink" version="1.1" viewBox="0 0 730 1024">
  <g transform="matrix(1 0 0 -1 0 817)">
   <path fill="currentColor"
d="M39 403q0 193 100.5 306.5t260.5 113.5q105 0 180 -57t111 -143l-128 -42q-65 114 -165 114q-94 0 -149.5 -79.5t-55.5 -212.5q0 -135 56 -214.5t149 -79.5q61 0 109 38.5t69 93.5l135 -41q-15 -38 -39 -73t-61 -69.5t-91.5 -55t-119.5 -20.5q-157 0 -259 112t-102 309z
" />
  </g>

</svg>
