<?xml version="1.0" standalone="no"?>
<!DOCTYPE svg PUBLIC "-//W3C//DTD SVG 1.1//EN" "http://www.w3.org/Graphics/SVG/1.1/DTD/svg11.dtd" >
<svg xmlns="http://www.w3.org/2000/svg" xmlns:xlink="http://www.w3.org/1999/xlink" version="1.1" viewBox="0 0 640 1024">
  <g transform="matrix(1 0 0 -1 0 817)">
   <path fill="currentColor"
d="M72 0v831h141v-295q58 71 143 71q108 0 179.5 -83t71.5 -229q0 -82 -23 -145t-60.5 -98.5t-79.5 -52.5t-86 -17q-49 0 -89.5 25.5t-58.5 59.5v-67h-138zM212 295q0 -89 33.5 -140t90.5 -51q54 0 89 48.5t35 142.5q0 88 -33 139t-91 51q-59 0 -91.5 -52.5t-32.5 -137.5z
" />
  </g>

</svg>
