<?xml version="1.0" standalone="no"?>
<!DOCTYPE svg PUBLIC "-//W3C//DTD SVG 1.1//EN" "http://www.w3.org/Graphics/SVG/1.1/DTD/svg11.dtd" >
<svg xmlns="http://www.w3.org/2000/svg" xmlns:xlink="http://www.w3.org/1999/xlink" version="1.1" viewBox="0 0 569 1024">
  <g transform="matrix(1 0 0 -1 0 817)">
   <path fill="currentColor"
d="M34 294q0 144 77 228.5t198 84.5q91 0 152 -55.5t76 -125.5l-121 -33q-11 37 -38 64.5t-67 27.5q-63 0 -96.5 -54.5t-33.5 -136.5q0 -91 37 -140.5t93 -49.5q44 0 76 30.5t43 69.5l121 -34q-18 -74 -85 -131t-157 -57q-122 0 -198.5 85t-76.5 227z" />
  </g>

</svg>
