<?xml version="1.0" standalone="no"?>
<!DOCTYPE svg PUBLIC "-//W3C//DTD SVG 1.1//EN" "http://www.w3.org/Graphics/SVG/1.1/DTD/svg11.dtd" >
<svg xmlns="http://www.w3.org/2000/svg" xmlns:xlink="http://www.w3.org/1999/xlink" version="1.1" viewBox="0 0 640 1024">
  <g transform="matrix(1 0 0 -1 0 817)">
   <path fill="currentColor"
d="M34 295q0 146 70.5 229t181.5 83q47 0 83.5 -21.5t56.5 -50.5v296h143v-831h-139v67q-19 -35 -58.5 -60t-86.5 -25t-90 17.5t-80 53t-59 98t-22 144.5zM181 295q0 -92 33.5 -141.5t91.5 -49.5q55 0 88.5 51t33.5 140q0 85 -32 137.5t-90 52.5q-61 0 -93 -52t-32 -138z
" />
  </g>

</svg>
