<?xml version="1.0" standalone="no"?>
<!DOCTYPE svg PUBLIC "-//W3C//DTD SVG 1.1//EN" "http://www.w3.org/Graphics/SVG/1.1/DTD/svg11.dtd" >
<svg xmlns="http://www.w3.org/2000/svg" xmlns:xlink="http://www.w3.org/1999/xlink" version="1.1" viewBox="0 0 610 1024">
  <g transform="matrix(1 0 0 -1 0 817)">
   <path fill="currentColor"
d="M211 591q0 -49 26.5 -79.5t67.5 -30.5q42 0 68 31t26 79q0 46 -25.5 77.5t-68.5 31.5q-44 0 -69 -31t-25 -78zM33 223q0 79 41.5 128t94.5 72q-112 62 -112 175q0 98 71 161.5t177 63.5q107 0 177.5 -63.5t70.5 -161.5q0 -112 -112 -175q57 -25 97 -74.5t40 -125.5
q0 -108 -76 -174.5t-197 -66.5q-113 0 -192.5 63t-79.5 178zM187 231q0 -55 32.5 -91t85.5 -36q52 0 85.5 36.5t33.5 90.5q0 52 -33 90.5t-86 38.5t-85.5 -38t-32.5 -91z" />
  </g>

</svg>
