<?xml version="1.0" standalone="no"?>
<!DOCTYPE svg PUBLIC "-//W3C//DTD SVG 1.1//EN" "http://www.w3.org/Graphics/SVG/1.1/DTD/svg11.dtd" >
<svg xmlns="http://www.w3.org/2000/svg" xmlns:xlink="http://www.w3.org/1999/xlink" version="1.1" viewBox="0 0 610 1024">
  <g transform="matrix(1 0 0 -1 0 817)">
   <path fill="currentColor"
d="M186 549q0 -70 30.5 -111t80.5 -41t81 42.5t31 110.5q0 65 -30 107.5t-82 42.5q-51 0 -81 -42.5t-30 -108.5zM33 154l120 39q45 -89 119 -89q39 0 67.5 21.5t44 58t23 75t8.5 81.5q-47 -64 -139 -64q-102 0 -171 74t-69 198q0 122 73 198.5t188 76.5q97 0 162 -61.5
t88 -163.5q15 -65 15 -159q0 -221 -72 -339t-219 -118q-86 0 -150 52.5t-88 119.5z" />
  </g>

</svg>
