<?xml version="1.0" standalone="no"?>
<!DOCTYPE svg PUBLIC "-//W3C//DTD SVG 1.1//EN" "http://www.w3.org/Graphics/SVG/1.1/DTD/svg11.dtd" >
<svg xmlns="http://www.w3.org/2000/svg" xmlns:xlink="http://www.w3.org/1999/xlink" version="1.1" viewBox="0 0 610 1024">
  <g transform="matrix(1 0 0 -1 0 817)">
   <path fill="currentColor"
d="M43 601q23 103 88.5 162.5t169.5 59.5q111 0 181 -63.5t70 -171.5q0 -70 -32 -126t-91 -114q-14 -14 -50.5 -49t-56 -55.5t-45.5 -54.5t-44 -67h316v-122h-497q0 50 15.5 100t36 86.5t58.5 81t63.5 70.5t70.5 68q11 11 17 16q85 80 85 169q0 50 -27.5 79.5t-71.5 29.5
q-99 0 -130 -137z" />
  </g>

</svg>
