<?xml version="1.0" standalone="no"?>
<!DOCTYPE svg PUBLIC "-//W3C//DTD SVG 1.1//EN" "http://www.w3.org/Graphics/SVG/1.1/DTD/svg11.dtd" >
<svg xmlns="http://www.w3.org/2000/svg" xmlns:xlink="http://www.w3.org/1999/xlink" version="1.1" viewBox="0 0 1595 2048">
  <g transform="matrix(1 0 0 -1 0 1638)">
   <path fill="currentColor"
d="M1470 733q0 -281 -113 -467t-319 -252l348 -362h-247l-285 330l-55 -2q-323 0 -498.5 197.5t-175.5 557.5q0 357 176 553.5t500 196.5q315 0 492 -200t177 -552zM305 733q0 -297 126.5 -450.5t367.5 -153.5q243 0 367 153t124 451q0 295 -123.5 447.5t-365.5 152.5
q-243 0 -369.5 -153.5t-126.5 -446.5z" />
  </g>

</svg>
