<?xml version="1.0" standalone="no"?>
<!DOCTYPE svg PUBLIC "-//W3C//DTD SVG 1.1//EN" "http://www.w3.org/Graphics/SVG/1.1/DTD/svg11.dtd" >
<svg xmlns="http://www.w3.org/2000/svg" xmlns:xlink="http://www.w3.org/1999/xlink" version="1.1" viewBox="0 0 1139 2048">
  <g transform="matrix(1 0 0 -1 0 1638)">
   <path fill="currentColor"
d="M850 0l-33 156h-8q-82 -103 -163.5 -139.5t-203.5 -36.5q-163 0 -255.5 84t-92.5 239q0 332 531 348l186 6v68q0 129 -55.5 190.5t-177.5 61.5q-137 0 -310 -84l-51 127q81 44 177.5 69t193.5 25q196 0 290.5 -87t94.5 -279v-748h-123zM475 117q155 0 243.5 85t88.5 238
v99l-166 -7q-198 -7 -285.5 -61.5t-87.5 -169.5q0 -90 54.5 -137t152.5 -47z" />
  </g>

</svg>
