<?xml version="1.0" standalone="no"?>
<!DOCTYPE svg PUBLIC "-//W3C//DTD SVG 1.1//EN" "http://www.w3.org/Graphics/SVG/1.1/DTD/svg11.dtd" >
<svg xmlns="http://www.w3.org/2000/svg" xmlns:xlink="http://www.w3.org/1999/xlink" version="1.1" viewBox="0 0 1255 2048">
  <g transform="matrix(1 0 0 -1 0 1638)">
   <path fill="currentColor"
d="M922 147h-9q-115 -167 -344 -167q-215 0 -334.5 147t-119.5 418t120 421t334 150q223 0 342 -162h13l-7 79l-4 77v446h166v-1556h-135zM590 119q170 0 246.5 92.5t76.5 298.5v35q0 233 -77.5 332.5t-247.5 99.5q-146 0 -223.5 -113.5t-77.5 -320.5q0 -210 77 -317
t226 -107z" />
  </g>

</svg>
