<?xml version="1.0" standalone="no"?>
<!DOCTYPE svg PUBLIC "-//W3C//DTD SVG 1.1//EN" "http://www.w3.org/Graphics/SVG/1.1/DTD/svg11.dtd" >
<svg xmlns="http://www.w3.org/2000/svg" xmlns:xlink="http://www.w3.org/1999/xlink" version="1.1" viewBox="0 0 1149 2048">
  <g transform="matrix(1 0 0 -1 0 1638)">
   <path fill="currentColor"
d="M639 -20q-243 0 -383.5 148t-140.5 411q0 265 130.5 421t350.5 156q206 0 326 -135.5t120 -357.5v-105h-755q5 -193 97.5 -293t260.5 -100q177 0 350 74v-148q-88 -38 -166.5 -54.5t-189.5 -16.5zM594 977q-132 0 -210.5 -86t-92.5 -238h573q0 157 -70 240.5t-200 83.5z
" />
  </g>

</svg>
