<?xml version="1.0" standalone="no"?>
<!DOCTYPE svg PUBLIC "-//W3C//DTD SVG 1.1//EN" "http://www.w3.org/Graphics/SVG/1.1/DTD/svg11.dtd" >
<svg xmlns="http://www.w3.org/2000/svg" xmlns:xlink="http://www.w3.org/1999/xlink" version="1.1" viewBox="0 0 1171 2048">
  <g transform="matrix(1 0 0 -1 0 1638)">
   <path fill="currentColor"
d="M584 1483q200 0 317 -93t117 -257q0 -108 -67 -197t-214 -162q178 -85 253 -178.5t75 -216.5q0 -182 -127 -290.5t-348 -108.5q-234 0 -360 102.5t-126 290.5q0 251 306 391q-138 78 -198 168.5t-60 202.5q0 159 117.5 253.5t314.5 94.5zM268 369q0 -120 83.5 -187
t234.5 -67q149 0 232 70t83 192q0 97 -78 172.5t-272 146.5q-149 -64 -216 -141.5t-67 -185.5zM582 1348q-125 0 -196 -60t-71 -160q0 -92 59 -158t218 -132q143 60 202.5 129t59.5 161q0 101 -72.5 160.5t-199.5 59.5z" />
  </g>

</svg>
