<?xml version="1.0" standalone="no"?>
<!DOCTYPE svg PUBLIC "-//W3C//DTD SVG 1.1//EN" "http://www.w3.org/Graphics/SVG/1.1/DTD/svg11.dtd" >
<svg xmlns="http://www.w3.org/2000/svg" xmlns:xlink="http://www.w3.org/1999/xlink" version="1.1" viewBox="0 0 1122 2048">
  <g transform="matrix(1 0 0 -1 0 1638)">
   <path fill="currentColor"
d="M1073 1096v-105l-203 -24q28 -35 50 -91.5t22 -127.5q0 -161 -110 -257t-302 -96q-49 0 -92 8q-106 -56 -106 -141q0 -45 37 -66.5t127 -21.5h194q178 0 273.5 -75t95.5 -218q0 -182 -146 -277.5t-426 -95.5q-215 0 -331.5 80t-116.5 226q0 100 64 173t180 99
q-42 19 -70.5 59t-28.5 93q0 60 32 105t101 87q-85 35 -138.5 119t-53.5 192q0 180 108 277.5t306 97.5q86 0 155 -20h379zM199 -184q0 -89 75 -135t215 -46q209 0 309.5 62.5t100.5 169.5q0 89 -55 123.5t-207 34.5h-199q-113 0 -176 -54t-63 -155zM289 745q0 -115 65 -174
t181 -59q243 0 243 236q0 247 -246 247q-117 0 -180 -63t-63 -187z" />
  </g>

</svg>
