<?xml version="1.0" standalone="no"?>
<!DOCTYPE svg PUBLIC "-//W3C//DTD SVG 1.1//EN" "http://www.w3.org/Graphics/SVG/1.1/DTD/svg11.dtd" >
<svg xmlns="http://www.w3.org/2000/svg" xmlns:xlink="http://www.w3.org/1999/xlink" version="1.1" viewBox="0 0 1905 2048">
  <g transform="matrix(1 0 0 -1 0 1638)">
   <path fill="currentColor"
d="M1573 0v713q0 131 -56 196.5t-174 65.5q-155 0 -229 -89t-74 -274v-612h-166v713q0 131 -56 196.5t-175 65.5q-156 0 -228.5 -93.5t-72.5 -306.5v-575h-166v1096h135l27 -150h8q47 80 132.5 125t191.5 45q257 0 336 -186h8q49 86 142 136t212 50q186 0 278.5 -95.5
t92.5 -305.5v-715h-166z" />
  </g>

</svg>
