<?xml version="1.0" standalone="no"?>
<!DOCTYPE svg PUBLIC "-//W3C//DTD SVG 1.1//EN" "http://www.w3.org/Graphics/SVG/1.1/DTD/svg11.dtd" >
<svg xmlns="http://www.w3.org/2000/svg" xmlns:xlink="http://www.w3.org/1999/xlink" version="1.1" viewBox="0 0 1255 2048">
  <g transform="matrix(1 0 0 -1 0 1638)">
   <path fill="currentColor"
d="M590 119q166 0 242 89t81 300v37q0 230 -78 331t-247 101q-146 0 -223.5 -113.5t-77.5 -320.5t76.5 -315.5t226.5 -108.5zM565 -20q-212 0 -331 149t-119 416q0 269 120 420t334 151q225 0 346 -170h9l24 150h131v-1588h-166v469q0 100 11 170h-13q-115 -167 -346 -167z
" />
  </g>

</svg>
