<?xml version="1.0" standalone="no"?>
<!DOCTYPE svg PUBLIC "-//W3C//DTD SVG 1.1//EN" "http://www.w3.org/Graphics/SVG/1.1/DTD/svg11.dtd" >
<svg xmlns="http://www.w3.org/2000/svg" xmlns:xlink="http://www.w3.org/1999/xlink" version="1.1" viewBox="0 0 1128 2048">
  <g transform="matrix(1 0 0 -1 0 1638)">
   <path fill="currentColor"
d="M1047 406q0 -198 -142.5 -312t-396.5 -114q-234 0 -414 88v288q148 -66 250.5 -93t187.5 -27q102 0 156.5 39t54.5 116q0 43 -24 76.5t-70.5 64.5t-189.5 99q-134 63 -201 121t-107 135t-40 180q0 194 131.5 305t363.5 111q114 0 217.5 -27t216.5 -76l-100 -241
q-117 48 -193.5 67t-150.5 19q-88 0 -135 -41t-47 -107q0 -41 19 -71.5t60.5 -59t196.5 -102.5q205 -98 281 -196.5t76 -241.5z" />
  </g>

</svg>
