<?xml version="1.0" standalone="no"?>
<!DOCTYPE svg PUBLIC "-//W3C//DTD SVG 1.1//EN" "http://www.w3.org/Graphics/SVG/1.1/DTD/svg11.dtd" >
<svg xmlns="http://www.w3.org/2000/svg" xmlns:xlink="http://www.w3.org/1999/xlink" version="1.1" viewBox="0 0 1169 2048">
  <g transform="matrix(1 0 0 -1 0 1638)">
   <path fill="currentColor"
d="M614 934q212 0 337.5 -119t125.5 -326q0 -245 -151 -377t-432 -132q-244 0 -394 79v267q79 -42 184 -68.5t199 -26.5q283 0 283 232q0 221 -293 221q-53 0 -117 -10.5t-104 -22.5l-123 66l55 745h793v-262h-522l-27 -287l35 7q61 14 151 14z" />
  </g>

</svg>
