<?xml version="1.0" standalone="no"?>
<!DOCTYPE svg PUBLIC "-//W3C//DTD SVG 1.1//EN" "http://www.w3.org/Graphics/SVG/1.1/DTD/svg11.dtd" >
<svg xmlns="http://www.w3.org/2000/svg" xmlns:xlink="http://www.w3.org/1999/xlink" version="1.1" viewBox="0 0 1157 2048">
  <g transform="matrix(1 0 0 -1 0 1638)">
   <path fill="currentColor"
d="M1133 1118v-155l-175 -45q48 -75 48 -168q0 -180 -125.5 -280.5t-348.5 -100.5l-55 3l-45 5q-47 -36 -47 -80q0 -66 168 -66h190q184 0 280.5 -79t96.5 -232q0 -196 -163.5 -304t-469.5 -108q-234 0 -357.5 81.5t-123.5 228.5q0 101 63 169t185 97q-47 20 -82 65.5
t-35 96.5q0 64 37 106.5t107 83.5q-88 38 -139.5 122t-51.5 198q0 183 119 283t340 100q47 0 111.5 -8.5t82.5 -12.5h390zM270 -158q0 -63 60.5 -99t169.5 -36q164 0 257 45t93 123q0 63 -55 87t-170 24h-158q-84 0 -140.5 -39.5t-56.5 -104.5zM381 752q0 -91 41.5 -144
t126.5 -53q86 0 126 53t40 144q0 202 -166 202q-168 0 -168 -202z" />
  </g>

</svg>
