<?xml version="1.0" standalone="no"?>
<!DOCTYPE svg PUBLIC "-//W3C//DTD SVG 1.1//EN" "http://www.w3.org/Graphics/SVG/1.1/DTD/svg11.dtd" >
<svg xmlns="http://www.w3.org/2000/svg" xmlns:xlink="http://www.w3.org/1999/xlink" version="1.1" viewBox="0 0 1753 2048">
  <g transform="matrix(1 0 0 -1 0 1638)">
   <path fill="currentColor"
d="M1079 0l-86 391l-116 494h-7l-204 -885h-328l-318 1118h304l129 -495q31 -133 63 -367h6q4 76 35 241l16 85l138 536h336l131 -536q4 -22 12.5 -65t16.5 -91.5t14.5 -95t7.5 -74.5h6q9 72 32 197.5t33 169.5l134 495h299l-322 -1118h-332z" />
  </g>

</svg>
