<?xml version="1.0" standalone="no"?>
<!DOCTYPE svg PUBLIC "-//W3C//DTD SVG 1.1//EN" "http://www.w3.org/Graphics/SVG/1.1/DTD/svg11.dtd" >
<svg xmlns="http://www.w3.org/2000/svg" xmlns:xlink="http://www.w3.org/1999/xlink" version="1.1" viewBox="0 0 713 1024">
  <g transform="matrix(1 0 0 -1 0 817)">
   <path fill="currentColor"
d="M42 396q0 190 98 301.5t253 111.5q100 0 171.5 -55t106.5 -136l-113 -37q-64 115 -167 115q-98 0 -155.5 -81.5t-57.5 -218.5q0 -139 58 -220t155 -81q63 0 111.5 38t70.5 93l118 -37q-15 -36 -38.5 -69.5t-59 -66t-87.5 -52t-113 -19.5q-152 0 -251.5 110.5t-99.5 303.5
z" />
  </g>

</svg>
