<?xml version="1.0" standalone="no"?>
<!DOCTYPE svg PUBLIC "-//W3C//DTD SVG 1.1//EN" "http://www.w3.org/Graphics/SVG/1.1/DTD/svg11.dtd" >
<svg xmlns="http://www.w3.org/2000/svg" xmlns:xlink="http://www.w3.org/1999/xlink" version="1.1" viewBox="0 0 589 1024">
  <g transform="matrix(1 0 0 -1 0 817)">
   <path fill="currentColor"
d="M163 162q0 -32 25.5 -53.5t67.5 -21.5q60 0 102.5 40t42.5 105v53q-46 -11 -111 -21q-127 -20 -127 -102zM35 151q0 163 242 199q88 13 124 24v31q0 42 -30 66t-80 24q-95 0 -164 -78l-77 66q45 53 107.5 82.5t131.5 29.5q129 0 184 -62.5t55 -174.5v-358h-123v72
q-18 -37 -62.5 -63.5t-104.5 -26.5q-95 0 -149 47t-54 122z" />
  </g>

</svg>
