<?xml version="1.0" standalone="no"?>
<!DOCTYPE svg PUBLIC "-//W3C//DTD SVG 1.1//EN" "http://www.w3.org/Graphics/SVG/1.1/DTD/svg11.dtd" >
<svg xmlns="http://www.w3.org/2000/svg" xmlns:xlink="http://www.w3.org/1999/xlink" version="1.1" viewBox="0 0 629 1024">
  <g transform="matrix(1 0 0 -1 0 817)">
   <path fill="currentColor"
d="M36 289q0 142 69.5 224t176.5 82q51 0 88.5 -24.5t57.5 -57.5v304h126v-817h-122v75q-18 -38 -59.5 -65.5t-91.5 -27.5q-45 0 -87 17t-78.5 52t-58 96.5t-21.5 141.5zM166 289q0 -94 36.5 -146.5t96.5 -52.5q58 0 94.5 53.5t36.5 145.5q0 89 -35.5 143.5t-95.5 54.5
q-63 0 -98 -54t-35 -144z" />
  </g>

</svg>
