<?xml version="1.0" standalone="no"?>
<!DOCTYPE svg PUBLIC "-//W3C//DTD SVG 1.1//EN" "http://www.w3.org/Graphics/SVG/1.1/DTD/svg11.dtd" >
<svg xmlns="http://www.w3.org/2000/svg" xmlns:xlink="http://www.w3.org/1999/xlink" version="1.1" viewBox="0 0 600 1024">
  <g transform="matrix(1 0 0 -1 0 817)">
   <path fill="currentColor"
d="M40 147l109 39q18 -42 53 -69t77 -27q63 0 99.5 42.5t36.5 113.5q0 69 -39 113t-99 44q-74 0 -129 -72l-83 32l42 428h400v-109h-279l-24 -207q49 35 119 35q101 0 164 -70.5t63 -190.5q0 -51 -15.5 -97t-46 -85t-83.5 -62t-121 -23q-91 0 -152 45.5t-92 119.5z" />
  </g>

</svg>
