<?xml version="1.0" standalone="no"?>
<!DOCTYPE svg PUBLIC "-//W3C//DTD SVG 1.1//EN" "http://www.w3.org/Graphics/SVG/1.1/DTD/svg11.dtd" >
<svg xmlns="http://www.w3.org/2000/svg" xmlns:xlink="http://www.w3.org/1999/xlink" version="1.1" viewBox="0 0 612 1024">
  <g transform="matrix(1 0 0 -1 0 817)">
   <path fill="currentColor"
d="M168 299q0 -88 34.5 -137t91.5 -49q56 0 90 48t34 139q0 89 -34 138t-89 49q-58 0 -92.5 -51t-34.5 -137zM39 298q0 135 67 216t172 81q53 0 89.5 -26.5t51.5 -58.5v67h126v-497q0 -163 -63.5 -241.5t-195.5 -78.5q-145 0 -225 112l84 58q58 -68 143 -68q55 0 91 42
t39 110q2 40 2 66q-19 -32 -57 -53.5t-81 -21.5q-109 0 -176 80.5t-67 212.5z" />
  </g>

</svg>
