<?xml version="1.0" standalone="no"?>
<!DOCTYPE svg PUBLIC "-//W3C//DTD SVG 1.1//EN" "http://www.w3.org/Graphics/SVG/1.1/DTD/svg11.dtd" >
<svg xmlns="http://www.w3.org/2000/svg" xmlns:xlink="http://www.w3.org/1999/xlink" version="1.1" viewBox="0 0 629 1024">
  <g transform="matrix(1 0 0 -1 0 817)">
   <path fill="currentColor"
d="M200 289q0 -91 34.5 -145t96.5 -54q59 0 96 52.5t37 146.5q0 91 -35.5 144.5t-97.5 53.5q-61 0 -96 -55t-35 -143zM75 -236v813h122v-75q53 93 152 93q105 0 174.5 -82.5t69.5 -223.5q0 -79 -22 -140.5t-58.5 -96.5t-78 -52.5t-85.5 -17.5q-56 0 -93.5 25.5t-54.5 59.5
v-303h-126z" />
  </g>

</svg>
