<?xml version="1.0" standalone="no"?>
<!DOCTYPE svg PUBLIC "-//W3C//DTD SVG 1.1//EN" "http://www.w3.org/Graphics/SVG/1.1/DTD/svg11.dtd" >
<svg xmlns="http://www.w3.org/2000/svg" xmlns:xlink="http://www.w3.org/1999/xlink" version="1.1" viewBox="0 0 534 1024">
  <g transform="matrix(1 0 0 -1 0 817)">
   <path fill="currentColor"
d="M26 120l91 53q60 -88 156 -88q47 0 74.5 18.5t27.5 49.5q0 25 -22.5 44t-47.5 28.5t-75 25.5q-9 3 -13 4q-36 12 -60.5 23.5t-51.5 31t-41 49t-14 68.5q0 76 64 122t159 46q71 0 134 -37.5t94 -95.5l-84 -51q-59 81 -143 81q-46 0 -70.5 -18.5t-24.5 -48.5
q0 -25 21.5 -44.5t44.5 -28.5t65 -23q11 -3 16 -5q178 -57 178 -172q0 -71 -59.5 -120.5t-168.5 -49.5q-84 0 -149.5 37t-100.5 101z" />
  </g>

</svg>
