<?xml version="1.0" standalone="no"?>
<!DOCTYPE svg PUBLIC "-//W3C//DTD SVG 1.1//EN" "http://www.w3.org/Graphics/SVG/1.1/DTD/svg11.dtd" >
<svg xmlns="http://www.w3.org/2000/svg" xmlns:xlink="http://www.w3.org/1999/xlink" version="1.1" viewBox="0 0 600 1024">
  <g transform="matrix(1 0 0 -1 0 817)">
   <path fill="currentColor"
d="M30 160l106 39q47 -109 152 -109q57 0 96 35.5t39 100.5q0 59 -43 96t-109 37q-36 0 -72 -4v108q26 -2 68 -2q53 0 90.5 33t37.5 91q0 51 -32 83.5t-81 32.5q-86 0 -126 -114l-108 34q21 83 84.5 135.5t157.5 52.5q110 0 175 -59.5t65 -151.5q0 -61 -31.5 -109t-77.5 -72
q55 -19 96.5 -67.5t41.5 -123.5q0 -115 -73.5 -179.5t-196.5 -64.5q-99 0 -167.5 52t-91.5 126z" />
  </g>

</svg>
