<?xml version="1.0" standalone="no"?>
<!DOCTYPE svg PUBLIC "-//W3C//DTD SVG 1.1//EN" "http://www.w3.org/Graphics/SVG/1.1/DTD/svg11.dtd" >
<svg xmlns="http://www.w3.org/2000/svg" xmlns:xlink="http://www.w3.org/1999/xlink" version="1.1" viewBox="0 0 680 1024">
  <g transform="matrix(1 0 0 -1 0 817)">
   <path fill="currentColor"
d="M104 0v749h276q109 0 165.5 -52t56.5 -140q0 -60 -30.5 -101.5t-77.5 -62.5q57 -17 96.5 -66t39.5 -118q0 -86 -56.5 -147.5t-157.5 -61.5h-312zM184 68h212q65 0 108.5 37.5t43.5 102.5q0 62 -42.5 103t-113.5 41h-208v-284zM184 419h182q67 0 110.5 33t43.5 99
q0 58 -35.5 94t-114.5 36h-186v-262z" />
  </g>

</svg>
