<?xml version="1.0" standalone="no"?>
<!DOCTYPE svg PUBLIC "-//W3C//DTD SVG 1.1//EN" "http://www.w3.org/Graphics/SVG/1.1/DTD/svg11.dtd" >
<svg xmlns="http://www.w3.org/2000/svg" xmlns:xlink="http://www.w3.org/1999/xlink" version="1.1" viewBox="0 0 726 1024">
  <g transform="matrix(1 0 0 -1 0 817)">
   <path fill="currentColor"
d="M52 373q0 179 85.5 286.5t226.5 107.5q142 0 226 -108t84 -286q0 -176 -83 -283.5t-227 -107.5q-143 0 -227.5 107.5t-84.5 283.5zM134 373q0 -148 62.5 -235t167.5 -87t166.5 86.5t61.5 235.5q0 154 -62 240t-166 86q-105 0 -167.5 -87.5t-62.5 -238.5zM348 228l52 47
l274 -280l-52 -46z" />
  </g>

</svg>
