<?xml version="1.0" standalone="no"?>
<!DOCTYPE svg PUBLIC "-//W3C//DTD SVG 1.1//EN" "http://www.w3.org/Graphics/SVG/1.1/DTD/svg11.dtd" >
<svg xmlns="http://www.w3.org/2000/svg" xmlns:xlink="http://www.w3.org/1999/xlink" version="1.1" viewBox="0 0 621 1024">
  <g transform="matrix(1 0 0 -1 0 817)">
   <path fill="currentColor"
d="M40 141l74 26q67 -116 208 -116q78 0 127 38t49 104q0 33 -14 58.5t-44.5 44.5t-56.5 30t-71 26l-51 17t-47.5 18t-48 23t-38.5 27.5t-33.5 35.5t-19 43.5t-8.5 54.5q0 89 68 142.5t182 53.5q87 0 151.5 -40t92.5 -100l-68 -24q-59 96 -178 96q-78 0 -122 -35t-44 -93
q0 -26 12 -48.5t26.5 -36t47 -29t51 -22t60.5 -20.5q10 -3 15 -5q49 -16 82 -31t68 -40t52.5 -60.5t17.5 -82.5q0 -101 -70.5 -157.5t-189.5 -56.5q-102 0 -173 43t-107 116z" />
  </g>

</svg>
