<?xml version="1.0" standalone="no"?>
<!DOCTYPE svg PUBLIC "-//W3C//DTD SVG 1.1//EN" "http://www.w3.org/Graphics/SVG/1.1/DTD/svg11.dtd" >
<svg xmlns="http://www.w3.org/2000/svg" xmlns:xlink="http://www.w3.org/1999/xlink" version="1.1" viewBox="0 0 563 1024">
  <g transform="matrix(1 0 0 -1 0 817)">
   <path fill="currentColor"
d="M120 138q0 -38 32 -64.5t88 -26.5q71 0 121.5 46t50.5 117v75q-44 -11 -140 -26q-78 -14 -115 -43t-37 -78zM42 132q0 150 232 186q104 17 138 28v31q0 50 -36 83t-102 33q-48 0 -92.5 -22.5t-75.5 -60.5l-50 42q40 46 96.5 75t119.5 29q216 0 216 -211v-345h-74v88
q-16 -43 -66 -74.5t-118 -31.5q-89 0 -138.5 42t-49.5 108z" />
  </g>

</svg>
