<?xml version="1.0" standalone="no"?>
<!DOCTYPE svg PUBLIC "-//W3C//DTD SVG 1.1//EN" "http://www.w3.org/Graphics/SVG/1.1/DTD/svg11.dtd" >
<svg xmlns="http://www.w3.org/2000/svg" xmlns:xlink="http://www.w3.org/1999/xlink" version="1.1" viewBox="0 0 566 1024">
  <g transform="matrix(1 0 0 -1 0 817)">
   <path fill="currentColor"
d="M44 273q0 126 68 204.5t176 78.5q110 0 173 -76.5t63 -195.5q0 -14 -2 -40h-400q0 -81 45 -139t125 -58q52 0 92 24.5t62 65.5l66 -20q-25 -59 -81 -97t-139 -38q-112 0 -180 80t-68 211zM124 303h322q0 79 -43 133.5t-115 54.5q-73 0 -117.5 -56t-46.5 -132z" />
  </g>

</svg>
