<?xml version="1.0" standalone="no"?>
<!DOCTYPE svg PUBLIC "-//W3C//DTD SVG 1.1//EN" "http://www.w3.org/Graphics/SVG/1.1/DTD/svg11.dtd" >
<svg xmlns="http://www.w3.org/2000/svg" xmlns:xlink="http://www.w3.org/1999/xlink" version="1.1" viewBox="0 0 850 1024">
  <g transform="matrix(1 0 0 -1 0 817)">
   <path fill="currentColor"
d="M80 0v538h76v-81q14 37 53 68t99 31q59 0 90 -33.5t48 -86.5q5 13 16 30t31 39t53.5 36.5t73.5 14.5q156 0 156 -208v-348h-78v342q0 74 -20 111.5t-76 37.5q-58 0 -97 -48.5t-39 -122.5v-320h-76v343q0 148 -98 148q-61 0 -97.5 -46t-36.5 -120v-325h-78z" />
  </g>

</svg>
