<?xml version="1.0" standalone="no"?>
<!DOCTYPE svg PUBLIC "-//W3C//DTD SVG 1.1//EN" "http://www.w3.org/Graphics/SVG/1.1/DTD/svg11.dtd" >
<svg xmlns="http://www.w3.org/2000/svg" xmlns:xlink="http://www.w3.org/1999/xlink" version="1.1" viewBox="0 0 596 1024">
  <g transform="matrix(1 0 0 -1 0 817)">
   <path fill="currentColor"
d="M162 270q0 -100 41 -161.5t113 -61.5q68 0 113 60t45 163q0 97 -42.5 159t-115.5 62q-68 0 -111 -62.5t-43 -158.5zM86 -235v773h74v-97q23 52 66.5 83.5t99.5 31.5q98 0 162 -78t64 -208q0 -139 -67 -213.5t-159 -74.5q-60 0 -102 31.5t-62 79.5v-328h-76z" />
  </g>

</svg>
