<?xml version="1.0" standalone="no"?>
<!DOCTYPE svg PUBLIC "-//W3C//DTD SVG 1.1//EN" "http://www.w3.org/Graphics/SVG/1.1/DTD/svg11.dtd" >
<svg xmlns="http://www.w3.org/2000/svg" xmlns:xlink="http://www.w3.org/1999/xlink" version="1.1" viewBox="0 0 569 1024">
  <g transform="matrix(1 0 0 -1 0 817)">
   <path fill="currentColor"
d="M38 129l66 26q56 -107 168 -107q70 0 117 41t47 119q0 73 -52 113.5t-126 40.5q-37 0 -60 -2v66q21 -2 56 -2q66 0 109 38.5t43 104.5q0 59 -38.5 97t-99.5 38q-96 0 -144 -114l-66 22q23 69 77 113t137 44q99 0 157.5 -55t58.5 -138q0 -65 -35 -111t-85 -65
q60 -16 105 -64t45 -126q0 -108 -67.5 -167t-178.5 -59q-87 0 -147.5 42t-86.5 105z" />
  </g>

</svg>
