<?xml version="1.0" standalone="no"?>
<!DOCTYPE svg PUBLIC "-//W3C//DTD SVG 1.1//EN" "http://www.w3.org/Graphics/SVG/1.1/DTD/svg11.dtd" >
<svg xmlns="http://www.w3.org/2000/svg" xmlns:xlink="http://www.w3.org/1999/xlink" version="1.1" viewBox="0 0 702 1024">
  <g transform="matrix(1 0 0 -1 0 817)">
   <path fill="currentColor"
d="M94 0v777h292q121 0 181.5 -54.5t60.5 -148.5q0 -114 -101 -164q53 -18 91 -67t38 -120q0 -94 -61.5 -158.5t-170.5 -64.5h-330zM208 98h194q57 0 96.5 32.5t39.5 91.5q0 55 -37 92.5t-102 37.5h-191v-254zM208 448h165q60 0 98.5 29.5t38.5 87.5q0 52 -32 83t-101 31
h-169v-231z" />
  </g>

</svg>
