<?xml version="1.0" standalone="no"?>
<!DOCTYPE svg PUBLIC "-//W3C//DTD SVG 1.1//EN" "http://www.w3.org/Graphics/SVG/1.1/DTD/svg11.dtd" >
<svg xmlns="http://www.w3.org/2000/svg" xmlns:xlink="http://www.w3.org/1999/xlink" version="1.1" viewBox="0 0 696 1024">
  <g transform="matrix(1 0 0 -1 0 817)">
   <path fill="currentColor"
d="M45 388q0 188 95 297.5t246 109.5q97 0 165 -53t101 -129l-98 -33q-66 117 -170 117q-101 0 -161 -84.5t-60 -224.5q0 -142 61 -225t160 -83q65 0 113.5 38t71.5 93l103 -32q-15 -36 -38 -67.5t-57 -62.5t-83.5 -49t-107.5 -18q-148 0 -244.5 108t-96.5 298z" />
  </g>

</svg>
