<?xml version="1.0" standalone="no"?>
<!DOCTYPE svg PUBLIC "-//W3C//DTD SVG 1.1//EN" "http://www.w3.org/Graphics/SVG/1.1/DTD/svg11.dtd" >
<svg xmlns="http://www.w3.org/2000/svg" xmlns:xlink="http://www.w3.org/1999/xlink" version="1.1" viewBox="0 0 704 1024">
  <g transform="matrix(1 0 0 -1 0 817)">
   <path fill="currentColor"
d="M208 416h179q70 0 107.5 35.5t37.5 98.5q0 58 -39 93.5t-111 35.5h-174v-263zM94 0v777h311q118 0 181.5 -62.5t63.5 -155.5q0 -80 -38 -131t-85 -67q39 -25 56 -55t29 -88q13 -62 30 -110t52 -108h-128q-44 74 -74 210q-11 53 -34.5 81t-73.5 28h-176v-319h-114z" />
  </g>

</svg>
