<?xml version="1.0" standalone="no"?>
<!DOCTYPE svg PUBLIC "-//W3C//DTD SVG 1.1//EN" "http://www.w3.org/Graphics/SVG/1.1/DTD/svg11.dtd" >
<svg xmlns="http://www.w3.org/2000/svg" xmlns:xlink="http://www.w3.org/1999/xlink" version="1.1" viewBox="0 0 580 1024">
  <g transform="matrix(1 0 0 -1 0 817)">
   <path fill="currentColor"
d="M149 154q0 -34 27.5 -57t74.5 -23q64 0 109 41.5t45 108.5v61q-46 -11 -121 -23q-68 -11 -101.5 -37t-33.5 -71zM37 145q0 158 239 195q99 15 129 25v31q0 45 -32.5 71.5t-87.5 26.5q-97 0 -165 -79l-68 58q43 51 103.5 80t127.5 29q232 0 232 -228v-354h-107v78
q-17 -39 -64 -67.5t-109 -28.5q-92 0 -145 45.5t-53 117.5z" />
  </g>

</svg>
