<?xml version="1.0" standalone="no"?>
<!DOCTYPE svg PUBLIC "-//W3C//DTD SVG 1.1//EN" "http://www.w3.org/Graphics/SVG/1.1/DTD/svg11.dtd" >
<svg xmlns="http://www.w3.org/2000/svg" xmlns:xlink="http://www.w3.org/1999/xlink" version="1.1" viewBox="0 0 589 1024">
  <g transform="matrix(1 0 0 -1 0 817)">
   <path fill="currentColor"
d="M179 579q0 -55 33.5 -89t82.5 -34q50 0 82.5 34.5t32.5 88.5q0 52 -32 87t-83 35q-52 0 -84 -35t-32 -87zM38 212q0 79 41.5 129t97.5 71q-115 55 -115 172q0 91 66.5 151t166.5 60t166.5 -60t66.5 -151q0 -63 -33 -106t-83 -66q59 -21 100 -72t41 -129
q0 -102 -72 -165.5t-186 -63.5q-108 0 -182.5 61.5t-74.5 168.5zM155 218q0 -61 39.5 -101.5t100.5 -40.5t100.5 40.5t39.5 101.5q0 60 -39.5 102.5t-100.5 42.5q-60 0 -100 -42t-40 -103z" />
  </g>

</svg>
