<?xml version="1.0" standalone="no"?>
<!DOCTYPE svg PUBLIC "-//W3C//DTD SVG 1.1//EN" "http://www.w3.org/Graphics/SVG/1.1/DTD/svg11.dtd" >
<svg xmlns="http://www.w3.org/2000/svg" xmlns:xlink="http://www.w3.org/1999/xlink" version="1.1" viewBox="0 0 589 1024">
  <g transform="matrix(1 0 0 -1 0 817)">
   <path fill="currentColor"
d="M42 138l95 35q19 -43 56 -70t82 -27q66 0 104.5 45t38.5 118q0 72 -41 118t-105 46q-76 0 -134 -71l-71 28l40 417h385v-94h-280l-25 -224q53 37 125 37q99 0 161.5 -69t62.5 -186q0 -50 -15 -95t-45 -82.5t-81 -59.5t-117 -22q-86 0 -145.5 42.5t-90.5 113.5z" />
  </g>

</svg>
