<?xml version="1.0" standalone="no"?>
<!DOCTYPE svg PUBLIC "-//W3C//DTD SVG 1.1//EN" "http://www.w3.org/Graphics/SVG/1.1/DTD/svg11.dtd" >
<svg xmlns="http://www.w3.org/2000/svg" xmlns:xlink="http://www.w3.org/1999/xlink" version="1.1" viewBox="0 0 611 1024">
  <g transform="matrix(1 0 0 -1 0 817)">
   <path fill="currentColor"
d="M46 130l59 22q31 -53 85 -84t125 -31q82 0 133.5 40t51.5 110q0 28 -11.5 51.5t-27 39t-44 30.5t-51 23.5t-58.5 20.5q-33 11 -50 16.5t-47 18t-46.5 22.5t-37.5 26.5t-32 34t-19 42t-8 52.5q0 86 65.5 137.5t176.5 51.5q82 0 144.5 -37.5t89.5 -93.5l-54 -19
q-61 96 -182 96q-82 0 -128.5 -37t-46.5 -98q0 -45 33.5 -78t64.5 -46.5t102 -36.5q7 -3 11 -4q39 -13 66 -23.5t59 -28.5t51 -38.5t32 -51t13 -67.5q0 -98 -68 -153t-184 -55q-95 0 -162.5 40t-104.5 108z" />
  </g>

</svg>
