<?xml version="1.0" standalone="no"?>
<!DOCTYPE svg PUBLIC "-//W3C//DTD SVG 1.1//EN" "http://www.w3.org/Graphics/SVG/1.1/DTD/svg11.dtd" >
<svg xmlns="http://www.w3.org/2000/svg" xmlns:xlink="http://www.w3.org/1999/xlink" version="1.1" viewBox="0 0 556 1024">
  <g transform="matrix(1 0 0 -1 0 817)">
   <path fill="currentColor"
d="M107 130q0 -40 34 -68.5t94 -28.5q75 0 128.5 48.5t53.5 123.5v83q-45 -14 -150 -30q-84 -14 -122 -45t-38 -83zM45 126q0 72 53.5 116.5t169.5 62.5q116 19 149 32v30q0 55 -38.5 90.5t-108.5 35.5q-48 0 -92.5 -22.5t-74.5 -60.5l-40 32q36 45 90 73t116 28
q109 0 158.5 -54t49.5 -145v-344h-59v95q-17 -45 -69.5 -79t-121.5 -34q-85 0 -133.5 40.5t-48.5 103.5z" />
  </g>

</svg>
