<?xml version="1.0" standalone="no"?>
<!DOCTYPE svg PUBLIC "-//W3C//DTD SVG 1.1//EN" "http://www.w3.org/Graphics/SVG/1.1/DTD/svg11.dtd" >
<svg xmlns="http://www.w3.org/2000/svg" xmlns:xlink="http://www.w3.org/1999/xlink" version="1.1" viewBox="0 0 560 1024">
  <g transform="matrix(1 0 0 -1 0 817)">
   <path fill="currentColor"
d="M134 560q0 -63 43 -102t103 -39q61 0 103.5 40t42.5 101q0 62 -42 101.5t-104 39.5q-65 0 -105.5 -41t-40.5 -100zM45 194q0 80 42.5 130t105.5 70q-124 47 -124 169q0 79 59.5 134.5t151.5 55.5q90 0 150 -54.5t60 -135.5q0 -66 -36 -109t-87 -60q64 -19 106.5 -70
t42.5 -131q0 -92 -66.5 -151.5t-169.5 -59.5q-100 0 -167.5 58t-67.5 154zM110 198q0 -71 49 -117.5t121 -46.5q73 0 122.5 47t49.5 117q0 72 -50 120.5t-122 48.5q-70 0 -120 -48t-50 -121z" />
  </g>

</svg>
