<?xml version="1.0" standalone="no"?>
<!DOCTYPE svg PUBLIC "-//W3C//DTD SVG 1.1//EN" "http://www.w3.org/Graphics/SVG/1.1/DTD/svg11.dtd" >
<svg xmlns="http://www.w3.org/2000/svg" xmlns:xlink="http://www.w3.org/1999/xlink" version="1.1" viewBox="0 0 1116 2048">
  <g transform="matrix(1 0 0 -1 0 1638)">
   <path fill="currentColor"
d="M1014 377q0 -183 -134.5 -290t-357.5 -107q-268 0 -411 59v102q158 -67 403 -67q180 0 285.5 82.5t105.5 216.5q0 83 -35 137.5t-114 99.5t-232 97q-224 77 -309.5 166.5t-85.5 238.5q0 164 128.5 267.5t330.5 103.5q206 0 387 -78l-37 -88q-182 76 -348 76
q-162 0 -258 -75t-96 -204q0 -81 29.5 -133t96.5 -93.5t230 -99.5q171 -59 257 -114.5t125.5 -126t39.5 -170.5z" />
  </g>

</svg>
