<?xml version="1.0" standalone="no"?>
<!DOCTYPE svg PUBLIC "-//W3C//DTD SVG 1.1//EN" "http://www.w3.org/Graphics/SVG/1.1/DTD/svg11.dtd" >
<svg xmlns="http://www.w3.org/2000/svg" xmlns:xlink="http://www.w3.org/1999/xlink" version="1.1" viewBox="0 0 1169 2048">
  <g transform="matrix(1 0 0 -1 0 1638)">
   <path fill="currentColor"
d="M582 1487q186 0 299.5 -95t113.5 -257q0 -112 -70.5 -198t-228.5 -159q192 -79 270 -173t78 -228q0 -181 -126.5 -289t-339.5 -108q-221 0 -339 101t-118 294q0 131 83 230t257 169q-161 76 -227 160.5t-66 202.5q0 105 53 184.5t148.5 122.5t212.5 43zM223 360
q0 -138 93.5 -214t261.5 -76q164 0 264 80.5t100 218.5q0 124 -78.5 201.5t-302.5 162.5q-184 -71 -261 -157t-77 -216zM580 1397q-141 0 -226.5 -69.5t-85.5 -190.5q0 -70 31.5 -123.5t91 -97t199.5 -101.5q163 63 234 139t71 183q0 120 -84.5 190t-230.5 70z" />
  </g>

</svg>
