<?xml version="1.0" standalone="no"?>
<!DOCTYPE svg PUBLIC "-//W3C//DTD SVG 1.1//EN" "http://www.w3.org/Graphics/SVG/1.1/DTD/svg11.dtd" >
<svg xmlns="http://www.w3.org/2000/svg" xmlns:xlink="http://www.w3.org/1999/xlink" version="1.1" viewBox="0 0 1169 2048">
  <g transform="matrix(1 0 0 -1 0 1638)">
   <path fill="currentColor"
d="M537 879q234 0 368.5 -113t134.5 -311q0 -225 -140 -350t-386 -125q-109 0 -207 21.5t-164 61.5v103q108 -55 192 -76.5t179 -21.5q192 0 308 101.5t116 274.5q0 163 -113 256t-307 93q-130 0 -272 -39l-60 39l58 669h704v-96h-610l-45 -516q156 29 244 29z" />
  </g>

</svg>
