<?xml version="1.0" standalone="no"?>
<!DOCTYPE svg PUBLIC "-//W3C//DTD SVG 1.1//EN" "http://www.w3.org/Graphics/SVG/1.1/DTD/svg11.dtd" >
<svg xmlns="http://www.w3.org/2000/svg" xmlns:xlink="http://www.w3.org/1999/xlink" version="1.1" viewBox="0 0 1071 2048">
  <g transform="matrix(1 0 0 -1 0 1638)">
   <path fill="currentColor"
d="M1030 1087v-69l-225 -14q90 -112 90 -246q0 -157 -104.5 -254.5t-280.5 -97.5q-74 0 -104 6q-59 -31 -90 -73t-31 -89q0 -52 39.5 -76t132.5 -24h190q177 0 271 -71.5t94 -211.5q0 -172 -139.5 -265.5t-397.5 -93.5q-205 0 -317.5 79t-112.5 220q0 112 69.5 186
t188.5 101q-49 21 -78.5 59.5t-29.5 88.5q0 109 139 192q-95 39 -148 122.5t-53 191.5q0 163 103.5 261.5t279.5 98.5q107 0 166 -21h348zM150 -184q0 -224 333 -224q428 0 428 273q0 98 -67 142t-217 44h-178q-299 0 -299 -235zM233 748q0 -126 76.5 -195.5t204.5 -69.5
q136 0 208.5 69t72.5 200q0 139 -74.5 208.5t-208.5 69.5q-130 0 -204.5 -74.5t-74.5 -207.5z" />
  </g>

</svg>
